<svg id="visual" viewBox="0 0 900 600" width="900" height="600" xmlns="http://www.w3.org/2000/svg" xmlns:xlink="http://www.w3.org/1999/xlink" version="1.1"><g stroke-width="1" stroke-linejoin="bevel"><path d="M397 324L369 435L468 398Z" fill="#2e2a25" stroke="#2e2a25"></path><path d="M397 324L287 424L369 435Z" fill="#7e6847" stroke="#7e6847"></path><path d="M290 524L408 517L369 435Z" fill="#c49f63" stroke="#c49f63"></path><path d="M369 435L408 517L468 398Z" fill="#2e2a25" stroke="#2e2a25"></path><path d="M568 396L521 308L468 398Z" fill="#3d362c" stroke="#3d362c"></path><path d="M468 398L521 308L397 324Z" fill="#7e6847" stroke="#7e6847"></path><path d="M408 517L506 486L468 398Z" fill="#1f1f1f" stroke="#1f1f1f"></path><path d="M365 216L287 284L397 324Z" fill="#7e6847" stroke="#7e6847"></path><path d="M397 324L287 284L287 424Z" fill="#a08355" stroke="#a08355"></path><path d="M506 486L568 396L468 398Z" fill="#4d4233" stroke="#4d4233"></path><path d="M521 308L365 216L397 324Z" fill="#c49f63" stroke="#c49f63"></path><path d="M287 424L290 524L369 435Z" fill="#c49f63" stroke="#c49f63"></path><path d="M574 600L598 463L506 486Z" fill="#1f1f1f" stroke="#1f1f1f"></path><path d="M506 486L598 463L568 396Z" fill="#c49f63" stroke="#c49f63"></path><path d="M432 67L339 187L365 216Z" fill="#5d4e39" stroke="#5d4e39"></path><path d="M365 216L339 187L287 284Z" fill="#5d4e39" stroke="#5d4e39"></path><path d="M339 600L427 600L408 517Z" fill="#2e2a25" stroke="#2e2a25"></path><path d="M408 517L427 600L506 486Z" fill="#3d362c" stroke="#3d362c"></path><path d="M290 524L339 600L408 517Z" fill="#c49f63" stroke="#c49f63"></path><path d="M287 284L184 417L287 424Z" fill="#7e6847" stroke="#7e6847"></path><path d="M287 424L192 489L290 524Z" fill="#a08355" stroke="#a08355"></path><path d="M290 524L230 600L339 600Z" fill="#5d4e39" stroke="#5d4e39"></path><path d="M189 262L184 417L287 284Z" fill="#5d4e39" stroke="#5d4e39"></path><path d="M637 233L528 194L521 308Z" fill="#2e2a25" stroke="#2e2a25"></path><path d="M521 308L528 194L365 216Z" fill="#2e2a25" stroke="#2e2a25"></path><path d="M635 314L521 308L568 396Z" fill="#c49f63" stroke="#c49f63"></path><path d="M184 417L192 489L287 424Z" fill="#1f1f1f" stroke="#1f1f1f"></path><path d="M680 432L635 314L568 396Z" fill="#c49f63" stroke="#c49f63"></path><path d="M427 600L521 600L506 486Z" fill="#3d362c" stroke="#3d362c"></path><path d="M191 218L189 262L287 284Z" fill="#3d362c" stroke="#3d362c"></path><path d="M432 67L306 137L339 187Z" fill="#a08355" stroke="#a08355"></path><path d="M339 187L191 218L287 284Z" fill="#a08355" stroke="#a08355"></path><path d="M521 600L574 600L506 486Z" fill="#c49f63" stroke="#c49f63"></path><path d="M598 463L680 432L568 396Z" fill="#b2915c" stroke="#b2915c"></path><path d="M306 137L191 218L339 187Z" fill="#6d5b40" stroke="#6d5b40"></path><path d="M635 314L637 233L521 308Z" fill="#a08355" stroke="#a08355"></path><path d="M697 511L680 432L598 463Z" fill="#8f754e" stroke="#8f754e"></path><path d="M635 314L711 290L637 233Z" fill="#2e2a25" stroke="#2e2a25"></path><path d="M192 489L230 600L290 524Z" fill="#a08355" stroke="#a08355"></path><path d="M86 184L126 331L189 262Z" fill="#c49f63" stroke="#c49f63"></path><path d="M189 262L126 331L184 417Z" fill="#c49f63" stroke="#c49f63"></path><path d="M184 417L75 492L192 489Z" fill="#3d362c" stroke="#3d362c"></path><path d="M192 489L93 600L230 600Z" fill="#4d4233" stroke="#4d4233"></path><path d="M0 407L93 383L0 321Z" fill="#2e2a25" stroke="#2e2a25"></path><path d="M126 331L93 383L184 417Z" fill="#1f1f1f" stroke="#1f1f1f"></path><path d="M574 600L697 511L598 463Z" fill="#3d362c" stroke="#3d362c"></path><path d="M812 310L711 290L680 432Z" fill="#6d5b40" stroke="#6d5b40"></path><path d="M680 432L711 290L635 314Z" fill="#a08355" stroke="#a08355"></path><path d="M571 97L528 194L637 233Z" fill="#6d5b40" stroke="#6d5b40"></path><path d="M481 61L432 67L528 194Z" fill="#5d4e39" stroke="#5d4e39"></path><path d="M528 194L432 67L365 216Z" fill="#6d5b40" stroke="#6d5b40"></path><path d="M690 171L571 97L637 233Z" fill="#1f1f1f" stroke="#1f1f1f"></path><path d="M571 97L481 61L528 194Z" fill="#1f1f1f" stroke="#1f1f1f"></path><path d="M309 0L212 102L306 137Z" fill="#8f754e" stroke="#8f754e"></path><path d="M306 137L212 102L191 218Z" fill="#a08355" stroke="#a08355"></path><path d="M191 218L86 184L189 262Z" fill="#1f1f1f" stroke="#1f1f1f"></path><path d="M93 383L75 492L184 417Z" fill="#8f754e" stroke="#8f754e"></path><path d="M711 290L690 171L637 233Z" fill="#1f1f1f" stroke="#1f1f1f"></path><path d="M574 600L700 600L697 511Z" fill="#2e2a25" stroke="#2e2a25"></path><path d="M839 371L812 310L680 432Z" fill="#b2915c" stroke="#b2915c"></path><path d="M212 102L86 184L191 218Z" fill="#3d362c" stroke="#3d362c"></path><path d="M93 383L0 407L75 492Z" fill="#2e2a25" stroke="#2e2a25"></path><path d="M75 492L93 600L192 489Z" fill="#c49f63" stroke="#c49f63"></path><path d="M481 61L373 0L432 67Z" fill="#8f754e" stroke="#8f754e"></path><path d="M432 67L373 0L306 137Z" fill="#3d362c" stroke="#3d362c"></path><path d="M533 0L373 0L481 61Z" fill="#a08355" stroke="#a08355"></path><path d="M373 0L309 0L306 137Z" fill="#4d4233" stroke="#4d4233"></path><path d="M212 102L126 74L86 184Z" fill="#1f1f1f" stroke="#1f1f1f"></path><path d="M571 97L533 0L481 61Z" fill="#c49f63" stroke="#c49f63"></path><path d="M621 0L533 0L571 97Z" fill="#4d4233" stroke="#4d4233"></path><path d="M0 321L93 383L126 331Z" fill="#8f754e" stroke="#8f754e"></path><path d="M75 492L0 600L93 600Z" fill="#1f1f1f" stroke="#1f1f1f"></path><path d="M0 232L0 321L126 331Z" fill="#a08355" stroke="#a08355"></path><path d="M839 371L680 432L825 517Z" fill="#2e2a25" stroke="#2e2a25"></path><path d="M711 290L815 227L690 171Z" fill="#a08355" stroke="#a08355"></path><path d="M0 407L0 472L75 492Z" fill="#6d5b40" stroke="#6d5b40"></path><path d="M219 0L126 74L212 102Z" fill="#4d4233" stroke="#4d4233"></path><path d="M86 184L0 232L126 331Z" fill="#5d4e39" stroke="#5d4e39"></path><path d="M700 600L772 600L697 511Z" fill="#7e6847" stroke="#7e6847"></path><path d="M309 0L219 0L212 102Z" fill="#1f1f1f" stroke="#1f1f1f"></path><path d="M825 517L680 432L697 511Z" fill="#5d4e39" stroke="#5d4e39"></path><path d="M0 127L0 232L86 184Z" fill="#3d362c" stroke="#3d362c"></path><path d="M812 310L815 227L711 290Z" fill="#2e2a25" stroke="#2e2a25"></path><path d="M726 75L621 0L571 97Z" fill="#1f1f1f" stroke="#1f1f1f"></path><path d="M900 229L815 227L812 310Z" fill="#3d362c" stroke="#3d362c"></path><path d="M772 600L825 517L697 511Z" fill="#1f1f1f" stroke="#1f1f1f"></path><path d="M726 75L571 97L690 171Z" fill="#3d362c" stroke="#3d362c"></path><path d="M814 111L726 75L690 171Z" fill="#b2915c" stroke="#b2915c"></path><path d="M0 472L0 600L75 492Z" fill="#2e2a25" stroke="#2e2a25"></path><path d="M219 0L123 0L126 74Z" fill="#6d5b40" stroke="#6d5b40"></path><path d="M126 74L0 127L86 184Z" fill="#2e2a25" stroke="#2e2a25"></path><path d="M0 0L0 127L126 74Z" fill="#c49f63" stroke="#c49f63"></path><path d="M805 0L701 0L726 75Z" fill="#2e2a25" stroke="#2e2a25"></path><path d="M726 75L701 0L621 0Z" fill="#2e2a25" stroke="#2e2a25"></path><path d="M900 229L814 111L815 227Z" fill="#c49f63" stroke="#c49f63"></path><path d="M815 227L814 111L690 171Z" fill="#4d4233" stroke="#4d4233"></path><path d="M825 517L900 428L839 371Z" fill="#1f1f1f" stroke="#1f1f1f"></path><path d="M839 371L900 329L812 310Z" fill="#b2915c" stroke="#b2915c"></path><path d="M900 478L900 428L825 517Z" fill="#2e2a25" stroke="#2e2a25"></path><path d="M900 428L900 329L839 371Z" fill="#7e6847" stroke="#7e6847"></path><path d="M900 600L900 478L825 517Z" fill="#c49f63" stroke="#c49f63"></path><path d="M900 329L900 229L812 310Z" fill="#7e6847" stroke="#7e6847"></path><path d="M772 600L900 600L825 517Z" fill="#a08355" stroke="#a08355"></path><path d="M900 77L805 0L814 111Z" fill="#4d4233" stroke="#4d4233"></path><path d="M814 111L805 0L726 75Z" fill="#2e2a25" stroke="#2e2a25"></path><path d="M123 0L0 0L126 74Z" fill="#5d4e39" stroke="#5d4e39"></path><path d="M900 229L900 77L814 111Z" fill="#8f754e" stroke="#8f754e"></path><path d="M900 77L900 0L805 0Z" fill="#8f754e" stroke="#8f754e"></path></g></svg>