<svg id="visual" viewBox="0 0 900 600" width="900" height="600" xmlns="http://www.w3.org/2000/svg" xmlns:xlink="http://www.w3.org/1999/xlink" version="1.1"><g stroke-width="1" stroke-linejoin="bevel"><path d="M358 356L359 502L534 402Z" fill="#708660" stroke="#708660"></path><path d="M534 402L559 319L358 356Z" fill="#a6cd8b" stroke="#a6cd8b"></path><path d="M359 502L561 600L534 402Z" fill="#b9e69b" stroke="#b9e69b"></path><path d="M392 600L561 600L359 502Z" fill="#4e5a45" stroke="#4e5a45"></path><path d="M534 402L694 327L559 319Z" fill="#5f7052" stroke="#5f7052"></path><path d="M358 356L177 470L359 502Z" fill="#1f1f1f" stroke="#1f1f1f"></path><path d="M359 502L238 600L392 600Z" fill="#ccffaa" stroke="#ccffaa"></path><path d="M177 470L238 600L359 502Z" fill="#829d6e" stroke="#829d6e"></path><path d="M746 409L694 327L534 402Z" fill="#b9e69b" stroke="#b9e69b"></path><path d="M394 103L221 241L358 356Z" fill="#829d6e" stroke="#829d6e"></path><path d="M358 356L221 241L177 470Z" fill="#708660" stroke="#708660"></path><path d="M394 103L358 356L559 319Z" fill="#5f7052" stroke="#5f7052"></path><path d="M561 600L746 409L534 402Z" fill="#2e322b" stroke="#2e322b"></path><path d="M694 327L558 127L559 319Z" fill="#5f7052" stroke="#5f7052"></path><path d="M558 127L394 103L559 319Z" fill="#3e4538" stroke="#3e4538"></path><path d="M561 600L736 600L746 409Z" fill="#b9e69b" stroke="#b9e69b"></path><path d="M341 0L139 196L221 241Z" fill="#1f1f1f" stroke="#1f1f1f"></path><path d="M221 241L0 270L177 470Z" fill="#3e4538" stroke="#3e4538"></path><path d="M900 290L756 163L694 327Z" fill="#a6cd8b" stroke="#a6cd8b"></path><path d="M694 327L756 163L558 127Z" fill="#1f1f1f" stroke="#1f1f1f"></path><path d="M556 0L341 0L394 103Z" fill="#1f1f1f" stroke="#1f1f1f"></path><path d="M394 103L341 0L221 241Z" fill="#ccffaa" stroke="#ccffaa"></path><path d="M556 0L394 103L558 127Z" fill="#3e4538" stroke="#3e4538"></path><path d="M0 270L0 500L177 470Z" fill="#ccffaa" stroke="#ccffaa"></path><path d="M177 470L0 600L238 600Z" fill="#4e5a45" stroke="#4e5a45"></path><path d="M749 0L556 0L558 127Z" fill="#2e322b" stroke="#2e322b"></path><path d="M0 203L0 270L139 196Z" fill="#a6cd8b" stroke="#a6cd8b"></path><path d="M139 196L0 270L221 241Z" fill="#708660" stroke="#708660"></path><path d="M0 500L0 600L177 470Z" fill="#94b57d" stroke="#94b57d"></path><path d="M736 600L900 446L746 409Z" fill="#2e322b" stroke="#2e322b"></path><path d="M746 409L900 290L694 327Z" fill="#b9e69b" stroke="#b9e69b"></path><path d="M900 446L900 290L746 409Z" fill="#5f7052" stroke="#5f7052"></path><path d="M0 0L0 203L139 196Z" fill="#ccffaa" stroke="#ccffaa"></path><path d="M736 600L900 600L900 446Z" fill="#4e5a45" stroke="#4e5a45"></path><path d="M341 0L136 0L139 196Z" fill="#a6cd8b" stroke="#a6cd8b"></path><path d="M900 146L749 0L756 163Z" fill="#1f1f1f" stroke="#1f1f1f"></path><path d="M756 163L749 0L558 127Z" fill="#2e322b" stroke="#2e322b"></path><path d="M900 290L900 146L756 163Z" fill="#a6cd8b" stroke="#a6cd8b"></path><path d="M136 0L0 0L139 196Z" fill="#a6cd8b" stroke="#a6cd8b"></path><path d="M900 146L900 0L749 0Z" fill="#829d6e" stroke="#829d6e"></path></g></svg>